# xmcd
#
# Track frame offsets: 
#        150
#        12358
#        22439
#        33469
#        43743
#        55727
#        67977
#        84446
#        93062
#        112945
#        120767
#        128972
#        141561
#
# Disc length: 2067 seconds
#
# Revision: 0
# Processed by: cddbd v1.5.2PL0 Copyright (c) Steve Scherf et al.
# Submitted via: ExactAudioCopyFreeDBPlugin 1.0
#
DISCID=a908110d
DTITLE=The Lowmen - Gun Songs and Murder Poetry
DYEAR=2011
DGENRE=Country
TTITLE0=Bitchen'
TTITLE1=Shotgun Messiah
TTITLE2=Bring Me Down
TTITLE3=High Noon
TTITLE4=Ballad of the .44
TTITLE5=Hearts, Bottles and Bones
TTITLE6=Kickin' Chickens
TTITLE7=Drunk and Lonely
TTITLE8=Outlaw Demon Seed
TTITLE9=Lowbrow
TTITLE10=Lowmen's Opus
TTITLE11=Midnight Gunfight
TTITLE12=36 and Fog
EXTD=
EXTT0=
EXTT1=
EXTT2=
EXTT3=
EXTT4=
EXTT5=
EXTT6=
EXTT7=
EXTT8=
EXTT9=
EXTT10=
EXTT11=
EXTT12=
PLAYORDER=
